<svg xmlns="http://www.w3.org/2000/svg" viewBox="0 0 860 500" role="img" aria-label="Clean satin pink bow">
  <defs>
    <linearGradient id="loopGrad" x1="0" y1="0" x2="0" y2="1">
      <stop offset="0%" stop-color="#efb2d7" />
      <stop offset="45%" stop-color="#de83ba" />
      <stop offset="100%" stop-color="#c45a96" />
    </linearGradient>
    <linearGradient id="knotGrad" x1="0" y1="0" x2="0" y2="1">
      <stop offset="0%" stop-color="#df86bb" />
      <stop offset="100%" stop-color="#b84c8b" />
    </linearGradient>
    <linearGradient id="tailGrad" x1="0" y1="0" x2="0" y2="1">
      <stop offset="0%" stop-color="#e791c3" />
      <stop offset="100%" stop-color="#bc4f8c" />
    </linearGradient>
    <filter id="shadow" x="-20%" y="-20%" width="140%" height="140%">
      <feDropShadow dx="0" dy="6" stdDeviation="5" flood-color="#8a3566" flood-opacity="0.2"/>
    </filter>
  </defs>

  <g filter="url(#shadow)">
    <path fill="url(#loopGrad)" stroke="#bf4f8e" stroke-width="5"
      d="M430 230 C364 160 274 144 209 160 C164 171 140 193 141 222 C142 253 171 278 218 290 C289 307 359 292 430 253 Z"/>
    <path fill="url(#loopGrad)" stroke="#bf4f8e" stroke-width="5"
      d="M430 230 C496 160 586 144 651 160 C696 171 720 193 719 222 C718 253 689 278 642 290 C571 307 501 292 430 253 Z"/>

    <ellipse cx="307" cy="238" rx="92" ry="30" fill="#f6f7fc"/>
    <ellipse cx="553" cy="238" rx="92" ry="30" fill="#f6f7fc"/>

    <path fill="url(#tailGrad)" d="M408 284 L358 452 L418 410 L442 468 L472 309 Z"/>
    <path fill="url(#tailGrad)" d="M452 284 L502 452 L442 410 L418 468 L388 309 Z"/>

    <rect x="382" y="176" width="96" height="114" rx="30" fill="url(#knotGrad)"/>
    <rect x="394" y="188" width="72" height="26" rx="13" fill="#f5c5e2" opacity="0.45"/>
    <circle cx="430" cy="200" r="6.5" fill="#f2b7d9"/>
  </g>
</svg>
